<svg width="100" height="100" viewBox="0 0 100 100" fill="none" xmlns="http://www.w3.org/2000/svg">
<rect width="100" height="100" rx="50" fill="black"/>
<g clip-path="url(#clip0_109_7)">
<path d="M58.8311 55.1866H27.6555C27.0949 55.1866 26.6399 54.7316 26.6399 54.171C26.6399 53.6104 27.0949 53.1554 27.6555 53.1554H58.8317C59.3923 53.1554 59.8473 53.6104 59.8473 54.171C59.8473 54.7316 59.3923 55.1866 58.8311 55.1866ZM62.4981 47.8157H27.6555C27.0949 47.8157 26.6399 47.3607 26.6399 46.8001C26.6399 46.2395 27.0949 45.7845 27.6555 45.7845H62.4981C63.0587 45.7845 63.5137 46.2395 63.5137 46.8001C63.5137 47.3607 63.0587 47.8157 62.4981 47.8157Z" fill="white"/>
<path d="M56.835 75.8805C42.476 75.8805 30.7938 64.472 30.7938 50.4487C30.7938 36.427 42.476 25.019 56.835 25.019C62.8409 25.019 68.7076 27.0675 73.3531 30.7867C73.7908 31.1371 73.8619 31.7764 73.5115 32.2147C73.1606 32.6529 72.5218 32.7235 72.0835 32.3731C67.7966 28.9408 62.3813 27.0507 56.835 27.0507C43.5958 27.0507 32.8251 37.5472 32.8251 50.4492C32.8251 63.3522 43.5958 73.8497 56.835 73.8497C62.3864 73.8497 67.8012 71.9591 72.083 68.5263C72.5198 68.1759 73.1586 68.245 73.511 68.6837C73.8614 69.121 73.7918 69.7608 73.3536 70.1122C68.7122 73.8314 62.8464 75.8805 56.835 75.8805Z" fill="white"/>
</g>
<defs>
<clipPath id="clip0_109_7">
<rect width="65" height="65" fill="white" transform="translate(18 18)"/>
</clipPath>
</defs>
</svg>
